<svg id="Layer_1" data-name="Layer 1" xmlns="http://www.w3.org/2000/svg" xmlns:xlink="http://www.w3.org/1999/xlink" viewBox="0 0 92.93 85.15"><defs><style>.cls-1{fill:url(#linear-gradient);}.cls-2{fill:#3e3f3f;}.cls-3{fill:none;}</style><linearGradient id="linear-gradient" x1="95.65" y1="42.82" x2="-11.7" y2="25.79" gradientUnits="userSpaceOnUse"><stop offset="0" stop-color="#a18772"/><stop offset="0.24" stop-color="#c5a24d"/><stop offset="0.49" stop-color="#e5d08b"/><stop offset="0.59" stop-color="#eee0aa"/><stop offset="0.69" stop-color="#dbc58f"/><stop offset="0.79" stop-color="#d2b784"/><stop offset="0.88" stop-color="#c8ab79"/><stop offset="1" stop-color="#a47d4e"/></linearGradient></defs><path d="M3.11,64.46a2.24,2.24,0,0,1-.68-1.64c0-.17,0-.42,0-.78s0-.61,0-.77a2.16,2.16,0,0,1,.68-1.61,2.57,2.57,0,0,1,1.78-.59,3.06,3.06,0,0,1,1.31.26A2.19,2.19,0,0,1,7,60a1.38,1.38,0,0,1,.3.76.17.17,0,0,1,0,.12.17.17,0,0,1-.14,0H6.28a.21.21,0,0,1-.12,0,.35.35,0,0,1-.08-.11,1.16,1.16,0,0,0-.4-.52A1.34,1.34,0,0,0,4.89,60a1.26,1.26,0,0,0-.91.32,1.34,1.34,0,0,0-.35,1v1.46a1.45,1.45,0,0,0,.35,1,1.3,1.3,0,0,0,.92.32,1.37,1.37,0,0,0,.94-.32,1.2,1.2,0,0,0,.36-1v-.25h-1a.18.18,0,0,1-.14-.06A.2.2,0,0,1,5,62.37v-.46a.2.2,0,0,1,.06-.14.18.18,0,0,1,.14-.06h2a.2.2,0,0,1,.15.06.2.2,0,0,1,.06.14v.88A2.33,2.33,0,0,1,7.08,64a2.08,2.08,0,0,1-.87.79,3.05,3.05,0,0,1-1.32.27A2.53,2.53,0,0,1,3.11,64.46Z"/><path d="M8.75,64.55a1.92,1.92,0,0,1-.58-1.38v-.73a1.92,1.92,0,0,1,.59-1.37,2.09,2.09,0,0,1,1.5-.5,2.08,2.08,0,0,1,1.49.5,1.87,1.87,0,0,1,.58,1.37,3.35,3.35,0,0,1,0,.37,3,3,0,0,1,0,.36,1.91,1.91,0,0,1-.57,1.38,2.11,2.11,0,0,1-1.5.5A2.13,2.13,0,0,1,8.75,64.55Zm2.18-.61a1.26,1.26,0,0,0,.26-.81c0-.05,0-.16,0-.32s0-.27,0-.33a1.28,1.28,0,0,0-.26-.81.85.85,0,0,0-.67-.27.87.87,0,0,0-.68.27,1.28,1.28,0,0,0-.26.81v.65a1.26,1.26,0,0,0,.26.81.87.87,0,0,0,.68.27A.83.83,0,0,0,10.93,63.94Z"/><path d="M13.33,64.91a.2.2,0,0,1-.06-.14v-5.5a.17.17,0,0,1,.06-.14.2.2,0,0,1,.14-.06h.7a.21.21,0,0,1,.2.2v5.5a.2.2,0,0,1-.06.14.17.17,0,0,1-.14.06h-.7A.2.2,0,0,1,13.33,64.91Z"/><path d="M15.79,64.51a2.26,2.26,0,0,1-.49-1.43v-.55a2.29,2.29,0,0,1,.48-1.42,1.79,1.79,0,0,1,2.56,0V59.27a.17.17,0,0,1,.06-.14.2.2,0,0,1,.14-.06h.72a.2.2,0,0,1,.15.06.2.2,0,0,1,.05.14v5.5a.24.24,0,0,1-.05.14.2.2,0,0,1-.15.06h-.67a.21.21,0,0,1-.2-.2v-.31a1.57,1.57,0,0,1-1.32.59A1.56,1.56,0,0,1,15.79,64.51Zm2.3-.66a1.29,1.29,0,0,0,.25-.75,5.13,5.13,0,0,0,0-.64,1.15,1.15,0,0,0-.25-.71.89.89,0,0,0-.7-.29c-.59,0-.91.37-.95,1.1v.5c0,.73.36,1.09.95,1.09A.83.83,0,0,0,18.09,63.85Z"/><path d="M22.87,64.54a2,2,0,0,1-.58-1.4v-.66a2,2,0,0,1,.58-1.41,2.09,2.09,0,0,1,1.46-.5,2.32,2.32,0,0,1,1.1.23,1.62,1.62,0,0,1,.68.57,1.35,1.35,0,0,1,.23.64.15.15,0,0,1-.05.14.2.2,0,0,1-.15.06h-.73a.18.18,0,0,1-.14,0,.6.6,0,0,1-.08-.13.82.82,0,0,0-.85-.6.87.87,0,0,0-.66.26,1.31,1.31,0,0,0-.25.82v.58c0,.72.34,1.08.91,1.08a1,1,0,0,0,.53-.14.92.92,0,0,0,.32-.46.26.26,0,0,1,.08-.13.18.18,0,0,1,.14-.05h.73a.2.2,0,0,1,.15.06.16.16,0,0,1,.05.14,1.22,1.22,0,0,1-.23.63,1.73,1.73,0,0,1-.66.58,2.38,2.38,0,0,1-1.12.24A2,2,0,0,1,22.87,64.54Z"/><path d="M27.26,64.91a.24.24,0,0,1-.05-.14V60.86a.25.25,0,0,1,.05-.15.2.2,0,0,1,.15-.06h.68a.2.2,0,0,1,.15.06.25.25,0,0,1,.05.15v.34a1.41,1.41,0,0,1,1.2-.55h.35a.2.2,0,0,1,.14.05.2.2,0,0,1,.06.15v.6a.2.2,0,0,1-.06.15.2.2,0,0,1-.14,0h-.66a.79.79,0,0,0-.84.84v2.28a.24.24,0,0,1-.05.14.2.2,0,0,1-.15.06h-.73A.2.2,0,0,1,27.26,64.91Z"/><path d="M31,64.52A2.18,2.18,0,0,1,30.44,63V62.8A2.37,2.37,0,0,1,31,61.16a2,2,0,0,1,1.51-.59,2,2,0,0,1,1.52.59,2.29,2.29,0,0,1,.53,1.6v.17a.22.22,0,0,1,0,.14.2.2,0,0,1-.15.06H31.58v.07a1.36,1.36,0,0,0,.25.77.8.8,0,0,0,.66.3,1,1,0,0,0,.77-.38l.11-.12.14,0h.74a.17.17,0,0,1,.12,0,.11.11,0,0,1,.06.11.78.78,0,0,1-.24.47,1.9,1.9,0,0,1-.68.47,2.47,2.47,0,0,1-1,.2A2,2,0,0,1,31,64.52Zm2.38-2.09v0a1.17,1.17,0,0,0-.25-.79.91.91,0,0,0-1.33,0,1.22,1.22,0,0,0-.24.79v0Z"/><path d="M35.74,64.51a2.32,2.32,0,0,1-.49-1.43v-.55a2.29,2.29,0,0,1,.48-1.42,1.8,1.8,0,0,1,2.57,0V59.27a.16.16,0,0,1,.05-.14.2.2,0,0,1,.14-.06h.73a.21.21,0,0,1,.2.2v5.5a.2.2,0,0,1-.06.14.17.17,0,0,1-.14.06h-.68a.21.21,0,0,1-.2-.2v-.31a1.56,1.56,0,0,1-1.31.59A1.58,1.58,0,0,1,35.74,64.51Zm2.3-.66a1.38,1.38,0,0,0,.26-.75v-.64a1.23,1.23,0,0,0-.26-.71.86.86,0,0,0-.7-.29c-.59,0-.91.37-1,1.1v.5c0,.73.36,1.09,1,1.09A.81.81,0,0,0,38,63.85Z"/><path d="M40.55,59.89a.2.2,0,0,1-.06-.15v-.6a.2.2,0,0,1,.06-.15.17.17,0,0,1,.14-.06h.76a.21.21,0,0,1,.21.21v.6a.18.18,0,0,1-.07.15.22.22,0,0,1-.14,0h-.76A.2.2,0,0,1,40.55,59.89Zm0,5a.2.2,0,0,1-.06-.14V60.85a.2.2,0,0,1,.06-.15.22.22,0,0,1,.14-.05h.7a.2.2,0,0,1,.15.06.22.22,0,0,1,0,.14v3.92a.24.24,0,0,1,0,.14.2.2,0,0,1-.15.06h-.7A.18.18,0,0,1,40.58,64.91Z"/><path d="M43.54,64.57a1.62,1.62,0,0,1-.38-1.16V61.54H42.5a.21.21,0,0,1-.2-.2v-.49a.18.18,0,0,1,.06-.14.2.2,0,0,1,.14-.06h.66V59.27a.17.17,0,0,1,.06-.14.18.18,0,0,1,.14-.06h.69a.21.21,0,0,1,.2.2v1.38h1a.17.17,0,0,1,.14.06.18.18,0,0,1,.06.14v.49a.2.2,0,0,1-.06.14.17.17,0,0,1-.14.06h-1v1.78a1,1,0,0,0,.12.54.46.46,0,0,0,.41.18h.58a.21.21,0,0,1,.2.2v.53a.2.2,0,0,1-.06.14.17.17,0,0,1-.14.06h-.68A1.53,1.53,0,0,1,43.54,64.57Z"/><path d="M47.2,64.76,46,60.91v-.08a.17.17,0,0,1,.17-.18h.63a.25.25,0,0,1,.15.05.28.28,0,0,1,.08.11l.8,2.73.86-2.71a.26.26,0,0,1,.08-.13.28.28,0,0,1,.16-.05h.43a.28.28,0,0,1,.16.05.26.26,0,0,1,.08.13l.86,2.71.81-2.73a.19.19,0,0,1,.07-.11.25.25,0,0,1,.15-.05h.62a.19.19,0,0,1,.13.05.17.17,0,0,1,0,.13v.08L51.1,64.76a.32.32,0,0,1-.09.15.24.24,0,0,1-.17.06h-.55a.25.25,0,0,1-.27-.21l-.86-2.61-.86,2.61A.28.28,0,0,1,48,65h-.53A.28.28,0,0,1,47.2,64.76Z"/><path d="M53.39,64.55a2,2,0,0,1-.57-1.38v-.73a1.91,1.91,0,0,1,.58-1.37,2.5,2.5,0,0,1,3,0A1.91,1.91,0,0,1,57,62.44c0,.07,0,.19,0,.37s0,.3,0,.36a2,2,0,0,1-.57,1.38,2.53,2.53,0,0,1-3,0Zm2.19-.61a1.26,1.26,0,0,0,.25-.81,2.38,2.38,0,0,0,0-.32,2.65,2.65,0,0,0,0-.33,1.28,1.28,0,0,0-.25-.81,1,1,0,0,0-1.36,0,1.28,1.28,0,0,0-.25.81v.65a1.26,1.26,0,0,0,.25.81.87.87,0,0,0,.68.27A.85.85,0,0,0,55.58,63.94Z"/><path d="M58,64.91a.2.2,0,0,1-.06-.14V60.86a.2.2,0,0,1,.06-.15.18.18,0,0,1,.14-.06h.68a.21.21,0,0,1,.21.21v.34a1.38,1.38,0,0,1,1.19-.55h.35a.2.2,0,0,1,.14.05.2.2,0,0,1,.06.15v.6a.2.2,0,0,1-.06.15.2.2,0,0,1-.14,0h-.66a.78.78,0,0,0-.83.84v2.28a.21.21,0,0,1-.2.2h-.74A.18.18,0,0,1,58,64.91Z"/><path d="M62.21,64.57a1.58,1.58,0,0,1-.38-1.16V61.54h-.66a.18.18,0,0,1-.14-.06.2.2,0,0,1-.06-.14v-.49a.21.21,0,0,1,.2-.2h.66V59.27a.16.16,0,0,1,.05-.14.2.2,0,0,1,.14-.06h.69a.2.2,0,0,1,.15.06.2.2,0,0,1,0,.14v1.38h1a.21.21,0,0,1,.2.2v.49a.2.2,0,0,1-.06.14.18.18,0,0,1-.14.06h-1v1.78a.9.9,0,0,0,.13.54.45.45,0,0,0,.4.18H64a.18.18,0,0,1,.14.06.16.16,0,0,1,0,.14v.53a.19.19,0,0,1,0,.14A.18.18,0,0,1,64,65h-.69A1.51,1.51,0,0,1,62.21,64.57Z"/><path d="M65,64.91a.2.2,0,0,1-.06-.14v-5.5a.17.17,0,0,1,.06-.14.2.2,0,0,1,.14-.06h.76a.21.21,0,0,1,.2.2v1.89a1.65,1.65,0,0,1,1.33-.59,1.54,1.54,0,0,1,1.22.5,1.92,1.92,0,0,1,.46,1.36v2.34a.2.2,0,0,1-.06.14.17.17,0,0,1-.14.06h-.76a.2.2,0,0,1-.15-.06.24.24,0,0,1,0-.14V62.48a1.09,1.09,0,0,0-.24-.75.85.85,0,0,0-.68-.27.87.87,0,0,0-.68.28,1,1,0,0,0-.25.74v2.29a.2.2,0,0,1-.06.14.17.17,0,0,1-.14.06h-.76A.2.2,0,0,1,65,64.91Z"/><path d="M70.22,59.89a.2.2,0,0,1-.06-.15v-.6a.2.2,0,0,1,.06-.15.18.18,0,0,1,.14-.06h.76a.21.21,0,0,1,.21.21v.6a.2.2,0,0,1-.06.15.27.27,0,0,1-.15,0h-.76A.22.22,0,0,1,70.22,59.89Zm0,5a.2.2,0,0,1-.06-.14V60.85a.2.2,0,0,1,.06-.15.24.24,0,0,1,.14-.05h.71a.2.2,0,0,1,.14.06.18.18,0,0,1,.06.14v3.92a.21.21,0,0,1-.2.2h-.71A.2.2,0,0,1,70.25,64.91Z"/><path d="M72.45,64.91a.2.2,0,0,1-.06-.14V60.85a.2.2,0,0,1,.06-.15.22.22,0,0,1,.14-.05h.69a.2.2,0,0,1,.14.05.2.2,0,0,1,.06.15v.34a1.67,1.67,0,0,1,1.38-.62,1.57,1.57,0,0,1,1.22.49,2,2,0,0,1,.44,1.37v2.34a.19.19,0,0,1,0,.14.18.18,0,0,1-.14.06h-.75a.18.18,0,0,1-.14-.06.2.2,0,0,1-.06-.14V62.48a1.09,1.09,0,0,0-.24-.75.85.85,0,0,0-.67-.27.85.85,0,0,0-.68.28,1,1,0,0,0-.26.74v2.29a.2.2,0,0,1-.06.14.17.17,0,0,1-.14.06h-.74A.18.18,0,0,1,72.45,64.91Z"/><path d="M78,64.52A2.13,2.13,0,0,1,77.4,63V62.8a2.37,2.37,0,0,1,.54-1.64,2.24,2.24,0,0,1,3,0,2.3,2.3,0,0,1,.54,1.6v.17a.18.18,0,0,1-.06.14.2.2,0,0,1-.15.06H78.53v.07a1.29,1.29,0,0,0,.26.77.77.77,0,0,0,.65.3,1,1,0,0,0,.77-.38.66.66,0,0,1,.12-.12l.14,0h.73a.21.21,0,0,1,.13,0,.13.13,0,0,1,0,.11.78.78,0,0,1-.24.47,1.85,1.85,0,0,1-.67.47,2.54,2.54,0,0,1-1,.2A2.06,2.06,0,0,1,78,64.52Zm2.38-2.09v0a1.22,1.22,0,0,0-.24-.79.86.86,0,0,0-.67-.29.84.84,0,0,0-.67.29,1.22,1.22,0,0,0-.24.79v0Z"/><path d="M83,64.86a1.63,1.63,0,0,1-.62-.45.74.74,0,0,1-.21-.43.15.15,0,0,1,.06-.13.15.15,0,0,1,.13-.05H83a.14.14,0,0,1,.11.06l.19.16a1.09,1.09,0,0,0,.33.19,1.1,1.1,0,0,0,.41.07,1.08,1.08,0,0,0,.54-.12.42.42,0,0,0,.21-.37.36.36,0,0,0-.1-.27.71.71,0,0,0-.34-.19,5.27,5.27,0,0,0-.73-.2,2.14,2.14,0,0,1-1-.46,1,1,0,0,1-.34-.81,1.09,1.09,0,0,1,.2-.62,1.42,1.42,0,0,1,.6-.49,2.22,2.22,0,0,1,.94-.18,2.59,2.59,0,0,1,1,.17,1.88,1.88,0,0,1,.62.43.76.76,0,0,1,.21.44.18.18,0,0,1-.06.13.13.13,0,0,1-.12,0H85a.18.18,0,0,1-.14-.06l-.19-.16a1,1,0,0,0-.28-.17.89.89,0,0,0-.38-.07.74.74,0,0,0-.48.13.43.43,0,0,0-.16.35.36.36,0,0,0,.08.25.7.7,0,0,0,.32.19,6.15,6.15,0,0,0,.72.18c1,.19,1.49.62,1.49,1.3a1.12,1.12,0,0,1-.51,1,2.35,2.35,0,0,1-1.42.37A2.58,2.58,0,0,1,83,64.86Z"/><path d="M87.39,64.86a1.76,1.76,0,0,1-.63-.45.77.77,0,0,1-.2-.43.17.17,0,0,1,0-.13.17.17,0,0,1,.13-.05h.68a.16.16,0,0,1,.12.06l.18.16a1,1,0,0,0,.34.19,1.26,1.26,0,0,0,1,0,.43.43,0,0,0,.2-.37.4.4,0,0,0-.09-.27.82.82,0,0,0-.34-.19,5.5,5.5,0,0,0-.74-.2,2.19,2.19,0,0,1-1-.46,1,1,0,0,1-.33-.81,1,1,0,0,1,.2-.62,1.45,1.45,0,0,1,.59-.49,2.25,2.25,0,0,1,.94-.18,2.55,2.55,0,0,1,1,.17,1.78,1.78,0,0,1,.62.43.76.76,0,0,1,.21.44.21.21,0,0,1,0,.13.17.17,0,0,1-.13,0H89.4a.17.17,0,0,1-.14-.06,1.59,1.59,0,0,1-.19-.16,1.05,1.05,0,0,0-.29-.17.86.86,0,0,0-.38-.07.73.73,0,0,0-.47.13.44.44,0,0,0-.17.35.41.41,0,0,0,.08.25.7.7,0,0,0,.32.19,6.15,6.15,0,0,0,.72.18c1,.19,1.5.62,1.5,1.3a1.12,1.12,0,0,1-.51,1,2.38,2.38,0,0,1-1.43.37A2.5,2.5,0,0,1,87.39,64.86Z"/><path class="cls-1" d="M81.36,23H70L64.54,39.09,56.23,13.94H40.71L32.18,39.76l-6.82-20H12.68L2.16,50.61H13.34L14.67,47h8.7l1.33,3.62H41.52l1.62-4.38H53.8l1.63,4.37H70.61l1.19-3.24h7.78l1.19,3.23h10ZM16.15,39.43,19,31.1l2.89,8.33ZM45.07,37.5l3.39-10.62L51.88,37.5Zm28,3.11,2.62-7.51,2.64,7.51Z"/><path class="cls-2" d="M15.52,74a.16.16,0,0,1,0-.12V69.3a.15.15,0,0,1,.15-.17h1.78a1.84,1.84,0,0,1,1.24.39,1.58,1.58,0,0,1,0,2.21,1.89,1.89,0,0,1-1.24.38H16.15v1.76a.17.17,0,0,1,0,.12A.16.16,0,0,1,16,74h-.35A.15.15,0,0,1,15.52,74Zm1.85-2.45c.71,0,1.06-.3,1.06-.92a.9.9,0,0,0-.26-.68,1.18,1.18,0,0,0-.8-.24H16.15v1.84Z"/><path class="cls-2" d="M20.21,73.67a1.66,1.66,0,0,1-.37-1.14v-2a.17.17,0,0,1,.05-.12.16.16,0,0,1,.11,0h.32a.17.17,0,0,1,.17.17v1.93c0,.71.3,1.07.92,1.07a.93.93,0,0,0,.71-.29,1.07,1.07,0,0,0,.26-.78V70.56a.17.17,0,0,1,.05-.12.16.16,0,0,1,.11,0h.33a.16.16,0,0,1,.11,0,.17.17,0,0,1,.05.12v3.31A.17.17,0,0,1,23,74a.15.15,0,0,1-.11,0h-.31a.15.15,0,0,1-.11,0,.17.17,0,0,1-.05-.12v-.31a1.31,1.31,0,0,1-.47.41,1.59,1.59,0,0,1-.7.13A1.25,1.25,0,0,1,20.21,73.67Z"/><path class="cls-2" d="M24.7,73.57v.3a.17.17,0,0,1-.05.12.14.14,0,0,1-.11,0h-.3a.15.15,0,0,1-.11,0,.17.17,0,0,1-.05-.12V69.23a.14.14,0,0,1,.05-.12.16.16,0,0,1,.11,0h.32a.14.14,0,0,1,.11,0,.13.13,0,0,1,0,.12v1.61a1.35,1.35,0,0,1,1.13-.52A1.32,1.32,0,0,1,27,70.8a2,2,0,0,1,.38,1.2,1.34,1.34,0,0,1,0,.21,1.22,1.22,0,0,1,0,.21,2,2,0,0,1-.38,1.2,1.32,1.32,0,0,1-1.11.48A1.34,1.34,0,0,1,24.7,73.57Zm1.76-.33a1.53,1.53,0,0,0,.25-.82s0-.12,0-.21c0-.89-.34-1.34-1-1.34a.88.88,0,0,0-.73.31,1.22,1.22,0,0,0-.27.74s0,.14,0,.27,0,.22,0,.27a1.32,1.32,0,0,0,.26.77,1,1,0,0,0,1.48,0Z"/><path class="cls-2" d="M28.29,74a.17.17,0,0,1-.05-.12V69.23a.14.14,0,0,1,.05-.12.16.16,0,0,1,.11,0h.31a.17.17,0,0,1,.12,0,.16.16,0,0,1,0,.12v4.64a.14.14,0,0,1-.16.16H28.4A.15.15,0,0,1,28.29,74Z"/><path class="cls-2" d="M29.91,69.66a.15.15,0,0,1,0-.11v-.37a.19.19,0,0,1,0-.12A.16.16,0,0,1,30,69h.41a.16.16,0,0,1,.12,0,.21.21,0,0,1,.05.12v.37a.16.16,0,0,1-.05.11.17.17,0,0,1-.12,0H30A.17.17,0,0,1,29.91,69.66ZM30,74a.17.17,0,0,1,0-.12V70.56a.17.17,0,0,1,0-.12.16.16,0,0,1,.11,0h.31a.17.17,0,0,1,.12,0,.16.16,0,0,1,0,.12v3.31a.14.14,0,0,1-.16.16h-.31A.15.15,0,0,1,30,74Z"/><path class="cls-2" d="M32,74a1.52,1.52,0,0,1-.49-.36.6.6,0,0,1-.16-.34.12.12,0,0,1,.05-.11.18.18,0,0,1,.1,0h.3l.06,0,.07.06a1.49,1.49,0,0,0,.36.31,1.13,1.13,0,0,0,.53.11,1.17,1.17,0,0,0,.61-.14.45.45,0,0,0,.23-.41.43.43,0,0,0-.1-.28.89.89,0,0,0-.33-.19c-.15,0-.37-.11-.67-.18a1.73,1.73,0,0,1-.86-.38.88.88,0,0,1-.25-.65.91.91,0,0,1,.15-.5,1.07,1.07,0,0,1,.46-.4,1.59,1.59,0,0,1,.72-.15,1.67,1.67,0,0,1,.75.15,1.27,1.27,0,0,1,.47.34.58.58,0,0,1,.16.33.14.14,0,0,1,0,.11.15.15,0,0,1-.11,0h-.27a.16.16,0,0,1-.14-.08,1.86,1.86,0,0,0-.2-.2.7.7,0,0,0-.23-.13,1.42,1.42,0,0,0-.39,0,.85.85,0,0,0-.52.14.46.46,0,0,0-.18.38.41.41,0,0,0,.07.25.67.67,0,0,0,.3.19,3.8,3.8,0,0,0,.64.18,2,2,0,0,1,.94.4.84.84,0,0,1,.28.66,1,1,0,0,1-.17.55,1.18,1.18,0,0,1-.51.38,2,2,0,0,1-.81.14A2,2,0,0,1,32,74Z"/><path class="cls-2" d="M35.21,74a.16.16,0,0,1,0-.12V69.23c0-.06,0-.1,0-.12a.17.17,0,0,1,.12,0h.32a.17.17,0,0,1,.12,0s0,.06,0,.12v1.63a1.23,1.23,0,0,1,.48-.4,1.52,1.52,0,0,1,.68-.14,1.34,1.34,0,0,1,1.05.43,1.68,1.68,0,0,1,.37,1.14v2a.14.14,0,0,1-.16.16H37.9a.14.14,0,0,1-.11,0,.17.17,0,0,1,0-.12V71.93a1.17,1.17,0,0,0-.24-.78.89.89,0,0,0-.71-.28.94.94,0,0,0-.72.28,1.13,1.13,0,0,0-.26.78v1.94a.17.17,0,0,1-.05.12.15.15,0,0,1-.11,0h-.32A.16.16,0,0,1,35.21,74Z"/><path class="cls-2" d="M39.71,73.66a1.82,1.82,0,0,1-.47-1.21V72a1.82,1.82,0,0,1,.47-1.21,1.48,1.48,0,0,1,1.14-.45,1.51,1.51,0,0,1,1.19.49,2,2,0,0,1,.43,1.33v.13a.17.17,0,0,1,0,.12.16.16,0,0,1-.12,0H39.88v.06a1.22,1.22,0,0,0,.28.78.81.81,0,0,0,.68.32,1,1,0,0,0,.54-.13,1,1,0,0,0,.31-.27s.07-.09.1-.1a.29.29,0,0,1,.12,0h.3a.18.18,0,0,1,.11,0,.11.11,0,0,1,0,.09.65.65,0,0,1-.19.37,1.62,1.62,0,0,1-.54.38,2,2,0,0,1-.79.15A1.48,1.48,0,0,1,39.71,73.66ZM41.83,72v0a1.15,1.15,0,0,0-.27-.79.88.88,0,0,0-.71-.31.9.9,0,0,0-.72.31,1.19,1.19,0,0,0-.25.79v0Z"/><path class="cls-2" d="M43.37,74a.17.17,0,0,1,0-.12V70.56a.21.21,0,0,1,0-.12.14.14,0,0,1,.11,0h.29a.17.17,0,0,1,.13,0,.16.16,0,0,1,0,.12v.31a1,1,0,0,1,1-.48h.27a.17.17,0,0,1,.12,0s0,.06,0,.12v.25a.16.16,0,0,1,0,.12.17.17,0,0,1-.12,0h-.4a.82.82,0,0,0-.61.22.86.86,0,0,0-.22.61v2.06a.16.16,0,0,1,0,.12.19.19,0,0,1-.12,0h-.32A.14.14,0,0,1,43.37,74Z"/><path class="cls-2" d="M46,71.54a.16.16,0,0,1,0-.12V71a.16.16,0,0,1,0-.12.14.14,0,0,1,.11,0h.48a.18.18,0,0,1,.13,0,.16.16,0,0,1,0,.12v.47a.13.13,0,0,1,0,.12.16.16,0,0,1-.12,0h-.48A.14.14,0,0,1,46,71.54ZM46,74a.16.16,0,0,1,0-.12V73.4a.16.16,0,0,1,0-.12.14.14,0,0,1,.11,0h.48a.18.18,0,0,1,.13,0,.16.16,0,0,1,0,.12v.47a.13.13,0,0,1,0,.12.16.16,0,0,1-.12,0h-.48A.14.14,0,0,1,46,74Z"/><path class="cls-2" d="M49.59,74a.16.16,0,0,1,0-.12V69.3a.15.15,0,0,1,.15-.17h1.91a1.55,1.55,0,0,1,1.12.36,1.2,1.2,0,0,1,.38.93,1.16,1.16,0,0,1-.18.66,1.11,1.11,0,0,1-.43.38,1.37,1.37,0,0,1,.51.45,1.31,1.31,0,0,1,.2.71,1.41,1.41,0,0,1-.18.71,1.19,1.19,0,0,1-.53.51,1.67,1.67,0,0,1-.83.19h-2A.15.15,0,0,1,49.59,74Zm1.92-2.78a1.07,1.07,0,0,0,.69-.2.73.73,0,0,0,.24-.58.67.67,0,0,0-.23-.55,1.08,1.08,0,0,0-.7-.19h-1.3v1.52Zm.07,2.27a1,1,0,0,0,.7-.24.82.82,0,0,0,.26-.62.81.81,0,0,0-.26-.62,1,1,0,0,0-.7-.24H50.21v1.72Z"/><path class="cls-2" d="M54.12,69.66a.16.16,0,0,1,0-.11v-.37a.21.21,0,0,1,0-.12.15.15,0,0,1,.11,0h.42a.15.15,0,0,1,.11,0,.16.16,0,0,1,.05.12v.37a.13.13,0,0,1-.05.11.16.16,0,0,1-.11,0h-.42A.16.16,0,0,1,54.12,69.66ZM54.17,74a.16.16,0,0,1,0-.12V70.56a.16.16,0,0,1,0-.12.17.17,0,0,1,.12,0h.31a.16.16,0,0,1,.11,0,.17.17,0,0,1,0,.12v3.31a.17.17,0,0,1,0,.12.15.15,0,0,1-.11,0h-.31A.16.16,0,0,1,54.17,74Z"/><path class="cls-2" d="M56.24,74a1.57,1.57,0,0,1-.5-.36.67.67,0,0,1-.16-.34.14.14,0,0,1,.05-.11.25.25,0,0,1,.11,0H56l.07,0a.33.33,0,0,1,.06.06,1.36,1.36,0,0,0,.37.31,1.13,1.13,0,0,0,.53.11,1.22,1.22,0,0,0,.61-.14.45.45,0,0,0,.22-.41.43.43,0,0,0-.09-.28,1,1,0,0,0-.33-.19l-.67-.18a1.77,1.77,0,0,1-.87-.38.92.92,0,0,1-.25-.65.85.85,0,0,1,.16-.5,1.1,1.1,0,0,1,.45-.4,1.67,1.67,0,0,1,.73-.15,1.73,1.73,0,0,1,.75.15,1.36,1.36,0,0,1,.47.34.65.65,0,0,1,.16.33.14.14,0,0,1,0,.11.14.14,0,0,1-.11,0H58a.15.15,0,0,1-.14-.08l-.2-.2a.76.76,0,0,0-.24-.13,1.35,1.35,0,0,0-.38,0,.9.9,0,0,0-.53.14.46.46,0,0,0-.18.38.41.41,0,0,0,.08.25.69.69,0,0,0,.29.19,4,4,0,0,0,.65.18,2,2,0,0,1,.94.4.87.87,0,0,1,.28.66.91.91,0,0,1-.18.55,1.07,1.07,0,0,1-.51.38,2.34,2.34,0,0,1-1.62,0Z"/><path class="cls-2" d="M59.41,74a.17.17,0,0,1,0-.12V70.56a.17.17,0,0,1,0-.12.16.16,0,0,1,.11,0h.31a.13.13,0,0,1,.11,0,.14.14,0,0,1,.05.12v.3a1.65,1.65,0,0,1,.48-.4,1.6,1.6,0,0,1,.69-.14,1.34,1.34,0,0,1,1.05.43,1.73,1.73,0,0,1,.37,1.14v2a.17.17,0,0,1,0,.12.15.15,0,0,1-.11,0h-.33A.15.15,0,0,1,62,74a.17.17,0,0,1,0-.12V71.93a1.17,1.17,0,0,0-.24-.78.88.88,0,0,0-.7-.28.94.94,0,0,0-.72.28,1.13,1.13,0,0,0-.26.78v1.94A.17.17,0,0,1,60,74a.15.15,0,0,1-.11,0h-.33A.15.15,0,0,1,59.41,74Z"/><path class="cls-2" d="M63.88,73.67a1.68,1.68,0,0,1-.44-1.15v-.61a1.69,1.69,0,0,1,.45-1.15,1.8,1.8,0,0,1,2.36,0,1.69,1.69,0,0,1,.45,1.15c0,.11,0,.21,0,.3s0,.2,0,.31a1.73,1.73,0,0,1-.44,1.15,1.86,1.86,0,0,1-2.38,0Zm1.9-.37a1.26,1.26,0,0,0,.28-.82,1.79,1.79,0,0,0,0-.27,1.57,1.57,0,0,0,0-.26,1.24,1.24,0,0,0-.28-.82.92.92,0,0,0-.71-.28.91.91,0,0,0-.71.28,1.24,1.24,0,0,0-.29.82v.53a1.27,1.27,0,0,0,.29.82.94.94,0,0,0,.71.28A1,1,0,0,0,65.78,73.3Z"/><path class="cls-2" d="M67.82,73.63a2.1,2.1,0,0,1-.39-1.21V72a2,2,0,0,1,.4-1.2,1.29,1.29,0,0,1,1.1-.48,1.37,1.37,0,0,1,1.13.52V69.23a.16.16,0,0,1,0-.12.17.17,0,0,1,.12,0h.32a.16.16,0,0,1,.11,0,.17.17,0,0,1,0,.12v4.64a.17.17,0,0,1,0,.12.15.15,0,0,1-.11,0h-.31a.15.15,0,0,1-.11,0,.16.16,0,0,1,0-.12v-.3a1.34,1.34,0,0,1-1.15.53A1.32,1.32,0,0,1,67.82,73.63Zm2-.4a1.26,1.26,0,0,0,.27-.77s0-.14,0-.27,0-.22,0-.27a1.22,1.22,0,0,0-.27-.74.88.88,0,0,0-.73-.31.87.87,0,0,0-.74.32,1.53,1.53,0,0,0-.25.82v.2c0,.9.34,1.35,1,1.35A.85.85,0,0,0,69.79,73.23Z"/><path class="cls-2" d="M72.05,73.66a1.81,1.81,0,0,1-.46-1.21V72a1.81,1.81,0,0,1,.46-1.21,1.69,1.69,0,0,1,2.34,0,2,2,0,0,1,.42,1.33v.13a.14.14,0,0,1-.16.16H72.22v.06a1.34,1.34,0,0,0,.28.78.82.82,0,0,0,.69.32.93.93,0,0,0,.53-.13,1,1,0,0,0,.32-.27.48.48,0,0,1,.09-.1l.12,0h.31a.21.21,0,0,1,.11,0,.11.11,0,0,1,0,.09.65.65,0,0,1-.19.37A1.62,1.62,0,0,1,74,74a2,2,0,0,1-.79.15A1.51,1.51,0,0,1,72.05,73.66ZM74.18,72v0a1.15,1.15,0,0,0-.27-.79.89.89,0,0,0-.71-.31.87.87,0,0,0-.72.31,1.19,1.19,0,0,0-.26.79v0Z"/><rect class="cls-3" width="92.93" height="85.15"/></svg>